/* XPM */
static char *_f50620114a2454cba1809697617871dGv5M7flIEgCvNxFP[] = {
/* columns rows colors chars-per-pixel */
"64 64 56 1 ",
"  c None",
". c #FFCC33",
"X c #010000",
"o c #030201",
"O c #040302",
"+ c #080704",
"@ c #0B0905",
"# c #0C0A05",
"$ c #131009",
"% c #18140B",
"& c #1A160C",
"* c #1E180E",
"= c #231C10",
"- c #241D10",
"; c #2D2414",
": c #2D2515",
"> c #302716",
", c #3A2F1A",
"< c #3C311B",
"1 c #3D311B",
"2 c #3F331C",
"3 c #40331D",
"4 c #44371F",
"5 c #45391F",
"6 c #4B3D22",
"7 c #4F4024",
"8 c #604E2B",
"9 c #624F2C",
"0 c #66532E",
"q c #66542F",
"w c #67542F",
"e c #69542F",
"r c #796237",
"t c #7B6438",
"y c #7E6739",
"u c #80693A",
"i c #826A3B",
"p c #846B3C",
"a c #856C3C",
"s c #856D3C",
"d c #866D3D",
"f c #876D3D",
"g c #866E3D",
"h c #876F3E",
"j c #886F3D",
"k c #886E3E",
"l c #886F3E",
"z c #896F3E",
"x c #8A6F3E",
"c c #89703D",
"v c #88703E",
"b c #8B713F",
"n c #8D7340",
"m c #8F7441",
"M c #967A43",
"N c #977A44",
/* pixels */
"                                                                ",
"                                                                ",
"             jw4<<<b                           at722<8          ",
"           je@.....i                          a=.....<          ",
"           w.......i                         a$......<          ",
"          j@..O:<<<b                        b3...&,<<8          ",
"          0..Orj                            a@..2b              ",
"          6..:j                             a...a               ",
"          <..<                              i...b               ",
"          <..<                              i...j               ",
"          <..<                              i...b               ",
"          <..<                              i...b               ",
"          <..<                              i...j               ",
"          <..<M                             i...b               ",
"          <..%<<<<<<<<<<<<<<<<<<<<<<<<<<<<<<>...b               ",
"          <.....................................j               ",
"          <.....................................b               ",
"          <..%<<<<<<<<<<<<<<<<<<<<<<<<<<<<<<>...j               ",
"          <..<M                             i...b               ",
"          <..<                              i...j               ",
"          <..<                              i...b               ",
"          <..<                              i...b               ",
"          <..<                              i...j               ",
"          <..<                              i...c               ",
"          <..<                              i...b               ",
"          <..<                              i...j               ",
"          <..<naaaaaaaaaaaaaaaaaaaaaaaaaaaaai...b               ",
"          <..#******************************%...b               ",
"          <.....................................j               ",
"          <.....................................c               ",
"          <..-9999999999999999999999999999996...b               ",
"          <..<N                             i...j               ",
"          <..<                              i...b               ",
"          <..<                              i...j               ",
"          <..<                              i...b               ",
"          <..<                              i...j               ",
"          <..<                              i...b               ",
"          <..<                              i...b               ",
"          <..<                              i...j               ",
"          <..<mbbbjbbjbjbbjbbjbbjbcjbbjbbjbby...c               ",
"          <.....................................b               ",
"          <.....................................j               ",
"          <.....................................b               ",
"          <..>iiiiiiiiiiiiiiiiiiiiiiiiiiiiii0...b               ",
"          <..<                              i...j               ",
"          <..<                              i...c               ",
"          <..<                              i...b               ",
"          <..<                              i...j               ",
"          <..<                              i...b               ",
"          <..<                              i...j               ",
"          <..<                              i...b               ",
"          <..<                              i...j               ",
"          <..>iiiiiiiiiiiiiiiiiiiiiiiiiiiiii0...b               ",
"          <.....................................b               ",
"          <.....................................j               ",
"          <.....................................c               ",
"          <..<mbbjbbjcbjjbjbjbjbbjbjbbjcbjbby...b               ",
"          <..<                              i...j               ",
"          <..<                              i...b               ",
"          <..<                              i...b               ",
"          <..<                              i...j               ",
"          8<<8                              b<<<c               ",
"                                                                ",
"                                                                "
};
