/* XPM */
static char *_45554cd9f07423fd42a950779d079db1MLkeyV0TUyvV8Go[] = {
/* columns rows colors chars-per-pixel */
"64 64 16 1 ",
"  c None",
". c black",
"X c #1C0B02",
"o c #2B1104",
"O c #381705",
"+ c #332923",
"@ c #CE6610",
"# c #FFF200",
"$ c #B2B047",
"% c #CCC951",
"& c #2E3192",
"* c blue",
"= c #ED008C",
"- c #898989",
"; c #EAE9A4",
": c white",
/* pixels */
"                                                                ",
"                                                                ",
"                                                                ",
"                                                                ",
"                                                                ",
"                                                                ",
"                                                                ",
"                                                                ",
"                                                                ",
"                                                                ",
"                                                                ",
"                                                                ",
"                                                                ",
"                         *  =                                   ",
"                    XXXOOOOOOOO OOO .OOOOOOO&                   ",
"                 XXXooOOOOOO:OOOOOooo=oO:O:OOOO                 ",
"                XXX:o:OO+#+O+++*OOOOoooO#OOOOOOOO               ",
"               XXooo:OO=+++=++OOO=OO:oooOO=++&OOOOO             ",
"              XXooOOOOO+OOOOOOOOOOOOOooooOOO++OOOOOO            ",
"             XXoo*O=OOOOOOo:oo*oooo=oo&oooO:O:+:O:OOO           ",
"            XXoo:OO++OO=Ooo:oooooooooo:ooooOOO++=OOOOO          ",
"           XXXoOOO++OOOOoo*oooXX#XXXXXoo#o=OO&+++O:OO==         ",
"          -XXXo#O+#O*OOOooooooXXXXXXXXXoooooOOO++OOO=OOO        ",
"        --XXXooOO++OOOooooo@@@@@@XX*XXXXXoooO*O:+#OO*OOO        ",
"       --::XoooOO+=O:O*ooo@@;@@@@@XXXXXXX:ooOOO++OOOOO:OO       ",
"      ---XX:oo=OO++OOOoXX@;;@@%@@@@@XXX=XoooOOOO=++#+OOOO       ",
"      ---XXXoooOO=+OOO:XX;;%;;%;;@@@@XXXXoo=OOOOO++OOOO:oO      ",
"     ---%XXXooooO++O:OoXX;;%%%%%%%%%@XXXXoooOO:O::+OOO=ooO      ",
"     --%;XX:o#ooOO#+++O*XX;;%@@@%@@%@@XXoooOO:OOOOO++O=ooO      ",
"    ---%;XXXoooooO++++#XXXX;@@XXXXXX@@oooooo&OO#OO&O#OoooO      ",
"    ---%;XXoo&ooo=O+=+++X::XXXXXXXXXXXoooO#oooOOOOOOOOoooO      ",
"    ---%;XX&oooo&OOO++++:XXXXXXXXXXXXoooOOOOOo::ooOOOo:ooO      ",
"    ---%;XXXooo:oo=O++#++ooo:oooooooOOOO&OOO=oo:oo=OOooooO      ",
"    ---%%oXXo&oo:ooOOO+++=Oooo:oo:oO#+OOO+#OOooOooooo:o*XO;     ",
"    ---%%%XX:Xooooooo#OO==OO:OOO*O:O&O++++++OoX&ooooo#ooOO;     ",
"    ----%;XXXXXX&:oooooooOOOO*OOOOOO+O&++++=OoXoooXXooXXOO;     ",
"    ----%;;XX:XXXXoooooooooooooOO&+=+++OOO+OOoXXoXX&XXXXXO;     ",
"    -----%;XXXXX:XXoo=oooo=ooooooOOO+++==OOOooo=XXXXXXXXO;;     ",
"    -----%%%oXXXXX*XXXoooXXXXo=oooOOOOOOOoooooX=XXXXXXXX;;;     ",
"    ------%%%XXXXXXXXXXXXXXXXXXXo#OO&#ooooooo#XXXX#XXXX%;;      ",
"     -----%%%%%oXXXXX:XX*XXXX:XXooooOOOoo&ooXXXXXXXXXX%%%;      ",
"     ------%%%%%XXXXXXX:XXX:XXX*Xoo&ooooXXX:XXXXXXXXX;;;%;      ",
"      -----%;%;%%;oXXXXXXXXX*XXXXXXX:XXXXXXXXXXXXXXX;;;;;@      ",
"      ------%;;;%;;;;XXXXXXXXXXXXXXXXXX:XXXXXXX@@;;;;;;%@       ",
"       ------%;;%%;;;;;;;@@@XXXXXXXXXXXXX@@@@@@;;;;;;;;@@       ",
"        ------%;;%%%;;;;;;;@@@@@@@@@@@@@@@@@@@;;%%;;;@@@        ",
"         ------%;;;%%;;;;;;;;;;;;@@@@@@@@;;;;;;%%;;;@@@         ",
"          ------%;;;%%;;;;;;;;;%%%%%%%;;;$$$;;;;;;;@@@          ",
"           ------@@@;;;;;;;;;;;;;;;;%%;;;;;;;;;;;;;@@@          ",
"             -----@@@@@;;;;;;;;;;;;;;;;;;;;;;;;;;@@@@           ",
"               ----@@@@@@@;;;;;;;;@@@@@@@@;;;;@@@@@@            ",
"                ----@@@@@@@@@@@@@@@@@@@@@@@@@@@@@@@             ",
"                  -----@@@@@@@@@@@@@@@@@@@@@@@@@@@              ",
"                      -----@@@@@@@@@@@@@@@@@@@@                 ",
"                                                                ",
"                                                                ",
"                                                                ",
"                                                                ",
"                                                                ",
"                                                                ",
"                                                                ",
"                                                                ",
"                                                                ",
"                                                                "
};
