/* XPM */
static char *_6ce6cb40c734579e1204a1674105a823hMniY9FpxHJNfXd[] = {
/* columns rows colors chars-per-pixel */
"48 48 138 2 ",
"   c None",
".  c #030202",
"X  c #090703",
"o  c #0C0A03",
"O  c #0F0D09",
"+  c #120E03",
"@  c #110F0A",
"#  c #151004",
"$  c #1D1603",
"%  c #1F1803",
"&  c #15120D",
"*  c #1A150D",
"=  c #131515",
"-  c #1F1E16",
";  c #181919",
":  c #241C05",
">  c #201B0B",
",  c #201B13",
"<  c #2C2105",
"1  c #2D250C",
"2  c #322604",
"3  c #362904",
"4  c #3C2C05",
"5  c #31260A",
"6  c #212017",
"7  c #23221B",
"8  c #2F2319",
"9  c #312515",
"0  c #362917",
"q  c #32261B",
"w  c #33322A",
"e  c #2D3030",
"r  c #333636",
"t  c #3C3C35",
"y  c #373A3A",
"u  c #393D3D",
"i  c #453305",
"p  c #483605",
"a  c #4A3806",
"s  c #41320B",
"d  c #4A3809",
"f  c #533E06",
"g  c #523E0A",
"h  c #453812",
"j  c #4C3E13",
"k  c #453423",
"l  c #483727",
"z  c #4A3825",
"x  c #4C3A29",
"c  c #543F2D",
"v  c #564106",
"b  c #584206",
"n  c #57440D",
"m  c #59460E",
"M  c #5E4A0E",
"N  c #534210",
"B  c #624A07",
"V  c #684E07",
"C  c #654D0C",
"Z  c #6D520A",
"A  c #725608",
"S  c #765909",
"D  c #7B5D09",
"F  c #56412D",
"G  c #424238",
"H  c #5F4732",
"J  c #5F4833",
"K  c #654C35",
"L  c #694F37",
"P  c #6C523A",
"I  c #75593F",
"U  c #494B43",
"Y  c #464B4B",
"T  c #51534B",
"R  c #525653",
"E  c #545853",
"W  c #555B5B",
"Q  c #5A5E59",
"!  c #625E48",
"~  c #7A5C41",
"^  c #7F6044",
"/  c #646B68",
"(  c #686F6F",
")  c #6A706E",
"_  c #6D7474",
"`  c #727A7A",
"'  c #846409",
"]  c #89670A",
"[  c #8D6A09",
"{  c #936F09",
"}  c #967109",
"|  c #9B750A",
" . c #9F780A",
".. c #A57C0A",
"X. c #A97F0B",
"o. c #826245",
"O. c #866548",
"+. c #886749",
"@. c #8A684A",
"#. c #916D4D",
"$. c #977251",
"%. c #9B7553",
"&. c #A37B57",
"*. c #AD820B",
"=. c #B1850B",
"-. c #B6890B",
";. c #BC8E0C",
":. c #C3930C",
">. c #C9970D",
",. c #CC9A0D",
"<. c #D39E0D",
"1. c #D6A10D",
"2. c #DBA50E",
"3. c #E4AB0E",
"4. c #E9AF0F",
"5. c #EDB30F",
"6. c #F1B50F",
"7. c #F6B90F",
"8. c #FEBF10",
"9. c #848471",
"0. c #7C8585",
"q. c #7F8888",
"w. c #8E9898",
"e. c #949D9D",
"r. c #99A3A3",
"t. c #A7B3B3",
"y. c #B2BEBE",
"u. c #BFCDCD",
"i. c #C2CFCF",
"p. c #C6D4D4",
"a. c #C3D0D0",
"s. c #CCDADA",
"d. c #CEDCDC",
"f. c #CEDDDD",
"g. c #D0DFDF",
"h. c #D3E1E1",
"j. c #D4E3E3",
"k. c #D6E5E5",
/* pixels */
"                                                    . . . .                                     ",
"                                                . .         .                                   ",
"                                            + X o X o o     . . . . .                           ",
"                                        o 4 -.7.8.8.1.A o .   .     . .                         ",
"                                      o | 8.8.8.8.8.8.8.5.D X .       .                         ",
"                                    o -.8.8.8.8.8.8.8.8.8.8.5.3 o       .                       ",
"                                  o -.8.8.8.8.8.8.8.8.8.8.8.8.$ ..$ +   .                       ",
"                                o X.8.8.8.8.8.8.8.8.8.8.8.8.:.2 8.5.p .                         ",
"                              o [ 8.8.8.8.8.8.8.8.8.8.8.8.8.>.*.8.8.6.o o                       ",
"                            + V 8.8.8.8.8.8.8.8.8.8.8.8.8.8.8.8.8.8.A a X                       ",
"                            : 7.8.8.8.8.8.8.8.8.8.8.8.8.8.8.8.8.8.7.p 5.B                       ",
"                          o ;.8.8.8.8.8.8.8.8.8.8.8.8.8.8.8.8.8.8.8.8.8.*.#                     ",
"                          $ 8.8.8.8.8.8.8.8.8.8.8.8.8.8.8.8.8.8.8.8.8.8.,.#                     ",
"                          Z 8.8.8.8.8.8.8.8.8.8.8.8.8.8.8.8.8.8.8.8.8.8.;.#                     ",
"                        o :.8.8.8.8.8.8.8.8.8.8.8.8.8.8.8.8.8.8.8.8.8.8.{ +                     ",
"                      + A 6.2.5.8.8.8.8.8.8.8.8.8.8.8.8.8.8.8.8.8.8.8.8.B                       ",
"                      + 1 O 7 @ 5 =.8.8.:.Z h N m *.8.8.8.8.8.8.8.8.8.8.$                       ",
"                      & w.h.k.j.r.7 ] C 6 ` r.r.q.e 4 6.8.8.8.8.8.8.8.<.o                       ",
"                    O y.k.k.k.k.k.i.= t s.k.k.k.j.j.R m 8.8.8.8.8.8.8.' o                       ",
"                  * _ k.k.k.k.k.k.u.= p.k.k.k.k.k.k.f.* 2.8.8.8.8.8.8.<                         ",
"                  & y.u Y k.k.k.k.q.W j.k.k.k.k.k.k.j.Q [ 8.8. .8.8.,.o                         ",
"                  X j.y R k.k.k.j._ ( k.k.k.u.= e k.k.` D 8.;.. 5.8.B                           ",
"                  X s.k.k.k.k.k.k.0.W k.k.k.i.; r k.k./ ' 8.d . 1.6.X   .                       ",
"                  & e.k.k.k.k.k.k.9.6 j.k.k.k.k.k.k.k.G *.:.: 3 :.D X . .                       ",
"                    , ! - @ @ @ X < - e.k.k.k.k.k.k.g.@ 3.2 =.v [ X .   .                       ",
"                    X A 1.5.5.5.6.8.:.* t.k.k.j.k.f.E N } a 8.V X .     .                       ",
"                    . 2.8.8.8.8.8.8.8.=.* U ` ` T & N 6.,.3.8.A .       .                       ",
"                    . ] 8.8.8.8.8.8.8.8.6. .S D  .2.8.8.8.2.< $ o #     .                       ",
"                      X Z Z V S D a s b ] ,.8.8.8.8.8.8.8.a D 8.5.4                             ",
"                      X + F J F F L I P z * : | 7.8.8.8.8.+ ;.: v >.+                           ",
"                    X * #.&.&.&.&.&.&.&.&.&.~ 9 < ,.8.8.8.< -.2.A <.+                           ",
"                    & $.&.&.&.&.&.&.&.&.&.&.&.&.L # 1.8.8.*.$ *.>.i o                           ",
"                  X @.&.&.&.&.&.&.&.&.&.&.&.&.&.&.L : 8.8.8.:.X + o                             ",
"                  = &.&.&.&.&.&.&.&.&.&.&.&.&.&.&.&.q | 8.8.8.X                                 ",
"                X @ &.&.&.&.&.&.&.&.&.&.&.&.&.&.&.&.~ 5 8.8.7..                                 ",
"              X l #.&.&.&.&.&.&.&.&.&.&.&.&.&.&.&.&.%.X 8.8.8.X                                 ",
"              . $.&.&.&.&.&.&.&.&.&.&.&.&.&.q #.&.&.&.+ 3.8.8.$                                 ",
"              O , $.&.&.&.&.&.&.&.&.&.&.&.o., 8 &.&.&.+ 2.8.8.f                                 ",
"                O X q K ~ #.$.%.%.@.P l & * x X &.&.&.O 4.8.8. .+                               ",
"                      O O . o o X * q c O.&.&.^ &.&.~ : 8.8.8.5.o                               ",
"                          O H %.&.&.&.&.&.&.&.&.&.#.* *.8.8.8.8.p                               ",
"                            O . c &.&.&.&.&.&.$.F + ] 8.8.8.8.8...#                             ",
"                                X k P o.I J 0 + C 1.8.8.8.8.8.8.:.X                             ",
"                                  . a 5 s B X.5.8.8.8.8.8.8.2.v o                               ",
"                                  X 5.8.8.8.8.8.8.8.8.8.:.b X X                                 ",
"                                  o 2.8.8.8.8.8.8.<.' : O                                       ",
"                                  + ;.6.2.-.{ b + o o                                           ",
"                                  + X . + # o                                                   "
};
