/* XPM */
static char *c6b8b5c6adb84e50b68930e138f60e96HULgWBkb68yd6Zax[] = {
/* columns rows colors chars-per-pixel */
"48 48 165 2 ",
"   c None",
".  c #020201",
"X  c #090702",
"o  c #0D0A02",
"O  c #090908",
"+  c #120E03",
"@  c #151004",
"#  c #1D1603",
"$  c #1F1803",
"%  c #1C160B",
"&  c #15100C",
"*  c #1A1C1C",
"=  c #1F1B14",
"-  c #251C06",
";  c #281E07",
":  c #201912",
">  c #2C2105",
",  c #312504",
"<  c #352905",
"1  c #3B2C04",
"2  c #302408",
"3  c #3E3008",
"4  c #2D2319",
"5  c #312515",
"6  c #362917",
"7  c #31261B",
"8  c #302D22",
"9  c #33332C",
"0  c #373527",
"q  c #2E3131",
"w  c #323636",
"e  c #443305",
"r  c #493706",
"t  c #4B3905",
"y  c #43340D",
"u  c #523D06",
"i  c #473627",
"p  c #4A3B25",
"a  c #564106",
"s  c #594306",
"d  c #564616",
"f  c #604907",
"g  c #634B0A",
"h  c #684E07",
"j  c #6F5308",
"k  c #735608",
"l  c #775908",
"z  c #7C5E0A",
"x  c #63501A",
"c  c #7E6213",
"v  c #57422D",
"b  c #554629",
"n  c #4D4C3F",
"m  c #44463F",
"M  c #5F4833",
"N  c #504A32",
"B  c #59553F",
"V  c #65562B",
"C  c #664C35",
"Z  c #694F37",
"A  c #6F543C",
"S  c #74583E",
"D  c #4B4F4D",
"F  c #444949",
"G  c #545447",
"H  c #5A5E5B",
"J  c #7A5C41",
"K  c #5B605C",
"L  c #636456",
"P  c #706F5E",
"I  c #736C51",
"U  c #5A6161",
"Y  c #646864",
"T  c #696E69",
"R  c #77796B",
"E  c #6E7472",
"W  c #707670",
"Q  c #7A7D74",
"!  c #767E7B",
"~  c #836309",
"^  c #89670A",
"/  c #8E6B09",
"(  c #936F09",
")  c #9B740A",
"_  c #9F780C",
"`  c #826412",
"'  c #80671F",
"]  c #8B6B10",
"[  c #977410",
"{  c #A67D0B",
"}  c #A97F0B",
"|  c #8A722C",
" . c #806044",
".. c #926E4E",
"X. c #867746",
"o. c #977251",
"O. c #9A7452",
"+. c #A37B57",
"@. c #AD830C",
"#. c #B0850B",
"$. c #B78A0C",
"%. c #BB8D0C",
"&. c #BE9009",
"*. c #AD8616",
"=. c #9C8234",
"-. c #AC8A2E",
";. c #B89125",
":. c #C2920C",
">. c #C9970D",
",. c #CC990D",
"<. c #D39E0D",
"1. c #C79710",
"2. c #D09D11",
"3. c #D5A00D",
"4. c #DBA50E",
"5. c #DBA610",
"6. c #DFA810",
"7. c #E4AB0E",
"8. c #E9AF0F",
"9. c #EEB30F",
"0. c #F2B60F",
"q. c #F6B90F",
"w. c #FBBD0F",
"e. c #E8AF11",
"r. c #E2AA10",
"t. c #EBB111",
"y. c #F1B610",
"u. c #F6B910",
"i. c #FEBF10",
"p. c #D3A423",
"a. c #EDBC35",
"s. c #FBC122",
"d. c #8A8059",
"f. c #988751",
"g. c #918356",
"h. c #898468",
"j. c #818478",
"k. c #BFA964",
"l. c #B2A678",
"z. c #CEB66D",
"x. c #7E8585",
"c. c #808784",
"v. c #818A8A",
"b. c #8E938A",
"n. c #91978E",
"m. c #909A98",
"M. c #9DA08E",
"N. c #A1A392",
"B. c #A5ADA5",
"V. c #A4AEAC",
"C. c #A9B3B2",
"Z. c #AEBAB9",
"A. c #ADB8B6",
"S. c #DECD8F",
"D. c #DEDBB7",
"F. c #B6C2C1",
"G. c #BECACA",
"H. c #C2CECD",
"J. c #CBD4C9",
"K. c #C4D0CD",
"L. c #C5D3D2",
"P. c #C9D6D4",
"I. c #CDDCDC",
"U. c #D0DFDF",
"Y. c #D6E5E5",
/* pixels */
"                                    . . . .       . .                                           ",
"                                  .         . . o X o . o .       .       .                     ",
"                          . . . . .     o X X s @.3.4.3.{ e @ @ &.1 X                           ",
"                        . .     .   . X l @.,.7.u.i.i.i.0.7.) s 0.# { $ +   .       .           ",
"                        .       . X z 9.w.0.i.i.i.i.i.i.i.i.0.>.:.< i.0.r . > X                 ",
"                      .       X < 9.i.i.i.w.i.i.i.i.i.i.i.i.i.w.,.@.i.i.9.r # @.# +   .         ",
"                      .   + $ { # i.i.i.i.i.i.i.i.i.i.i.i.i.i.i.i.i.i.i.l @.< i.9.r .           ",
"                        . r 0.i., :.i.i.i.i.i.i.i.i.i.i.i.i.i.i.i.i.i.w.t ,.#.i.i.0.X X         ",
"                      o X 0.i.i.#.<.i.i.i.i.i.i.i.i.i.i.i.i.i.i.i.i.i.i.i.i.i.i.i.l t X         ",
"                      X t l i.i.i.i.i.i.i.i.i.i.i.i.i.i.i.i.i.i.i.i.i.i.i.i.i.i.u.e 9.f         ",
"                      f 9.e w.i.i.i.i.i.i.i.i.i.i.i.i.i.i.i.i.i.i.i.i.i.i.i.i.i.i.i.i.#.@       ",
"                    + #.i.i.i.i.i.i.i.i.i.i.i.i.i.i.i.i.i.i.i.i.i.i.i.i.i.i.i.i.i.i.i.,.+       ",
"                    @ ,.w.i.i.i.i.i.i.i.i.i.i.i.i.i.i.i.i.i.i.i.i.i.i.i.i.i.i.i.i.i.i.&.@       ",
"                    @ %.i.i.i.i.i.i.i.i.i.i.i.i.i.i.i.i.i.i.i.i.i.i.i.i.i.i.i.i.i.i.i.( +       ",
"                    + ( i.i.i.i.i.i.i.u.@.c ` ] &.u.i.i.i.w.8.@.c c [ 4.i.i.i.i.i.i.i.g         ",
"                      f i.i.i.i.i.i.1.d P b.M.j.N d 7.i.i._ b R b.n.R b ) 0.i.i.i.i.w.#         ",
"                      # i.i.i.i.i.6.V V.L.I.I.I.G.K x :.5.B A.P.I.I.P.F.G *.t.i.i.i.<.o         ",
"                      o 3.i.i.i.i.` B.U.Y.Y.Y.Y.Y.H.0 9.y C.U.Y.Y.Y.Y.Y.F.b 2.i.i.i.^ o         ",
"                      o ^ i.i.i.i.| K.Y.Y.Y.Y.Y.Y.Y.Y t.G L.Y.Y.Y.Y.Y.Y.Y.Y p.i.i.i.>           ",
"                        > i.i.i.i.g.P.Y.Y.L.F F K.Y.c.0.d.P.Y.U w A.Y.Y.Y.! | i.i.,.o           ",
"                        o ,.i.i.[ d.P.Y.Y.K.w q G.Y.j.*.f.P.Y.D * C.Y.Y.Y.E * e.i.g             ",
"                          f i.9.. x K.Y.Y.Y.G.G.Y.Y.L ;.-.K.Y.G.G.Y.Y.Y.Y.m O <.y.X   .         ",
"                      .   X 9.3.. 3 M.I.Y.Y.Y.Y.Y.Y.9 z.| J.Y.Y.Y.Y.Y.Y.V.0 < :.z X . .         ",
"                      . . X z :.< - ' B.U.Y.Y.Y.U.! j.S.k.M.L.Y.Y.Y.Y.Z.H I u u.X .   .         ",
"                      .   . X / a #., ;.G x.x.T D 8 G.D.N.n m.W j.v.T W 8 = w.X .     .         ",
"                      .     . X h i.r / b U F.F.Z.L.s.s.u.1.@.=.h.! G z j O w..                 ",
"                      .       . k i.7.i.i.0.t.u.i.w.i.w.w.i.i.w.u.u.u.i.u.i.u.# ,               ",
"                      .     + X # > 5.i.i.i.i.i.i.i.i.w.i.i.u.u.u.i.i.i.i.4., - a t             ",
"                            3 9.i.z t i.i.i.i.i.i.i.i.u.u.u.i.i.i.i.i.i.i.r ~ i.9.>             ",
"                          @ >.a $ $.+ i.i.i.i.i.) > % v p % - ) i.i.i.i.i.o %.# a ,.            ",
"                          + <.k 6.$.> i.i.i.2.> 5 J +.+.+.+.J 7 > ,.i.i.i.> $.7.k <.+           ",
"                          o 3 >.@.# @.i.i.,.@ Z +.+.+.+.+.+.+.+.Z @ 3.w.w.@.# { >.e o           ",
"                            o o X :.i.i.i.> C +.+.+.+.+.+.+.+.+.+.C ; i.i.i.:.X + o             ",
"                                X i.i.i.) 5 +.+.+.+.+.+.+.+.+.+.+.+.5 ) i.i.i.X                 ",
"                                . w.i.i.2 J +.+.+.+.+.+.+.+.+.+.+.+.J 2 i.i.q..                 ",
"                                . i.i.i.X O.+.+.+.+.+.+.+.+.+.+.+.+.O.X w.w.w.. O               ",
"                                # i.i.7.o +.+.+...7 +.+.+.+.8 o.+.+.+ 7.w.i.%.- .               ",
"                                s i.i.5.@ +.+.+.7 = o.+.+.J 7 +.+.+.% <.i.i.f 1 .               ",
"                              @ _ i.i.e.o +.+.+.X p : i & i X +.+.+.O e.i.i.{ 1 @               ",
"                              X t.i.i.i.> J +.+.J +.+.J O.+.J +.+.J ; i.i.i.8.+ X               ",
"                              r i.i.i.i.@.% ..+.+.+.+.+.+.+.+.+...% @.i.i.i.i.t >               ",
"                            @ { i.i.i.i.i.^ @ v o.+.+.+.+.+.o.v @ ^ i.i.i.i.i.{ >               ",
"                            X :.i.i.i.i.i.i.3.g o 6 C A C 6 o g 3.i.i.i.i.i.i.:.X               ",
"                              X a 6.i.i.i.i.i.i.t.@.g 3 g { 0.i.i.i.i.i.i.4.a o                 ",
"                                X X s :.i.i.i.i.i.i.i.i.i.i.i.i.i.i.i.:.s X X                   ",
"                                      o $ ^ 3.w.i.i.i.i.w.w.i.i.3.^ $ o                         ",
"                                          o o @ s / $.6.0.%.t + o o                             ",
"                                                  o @ o . o +                                   "
};
