/* XPM */
static char *result[] = {
/* columns rows colors chars-per-pixel */
"48 48 225 2 ",
"   c #010101",
".  c #020201",
"X  c #030301",
"o  c #020202",
"O  c #030202",
"+  c #040301",
"@  c #040401",
"#  c #050401",
"$  c #060501",
"%  c #070601",
"&  c #080600",
"*  c #080601",
"=  c #090601",
"-  c #080701",
";  c #090701",
":  c #090702",
">  c #0B0702",
",  c #0A0606",
"<  c #0A0802",
"1  c #0B0802",
"2  c #0B0902",
"3  c #0C0802",
"4  c #0D0903",
"5  c #0D0A02",
"6  c #0D0B02",
"7  c #0E0A02",
"8  c #0E0B02",
"9  c #0F0B02",
"0  c #0F0C02",
"q  c #130E01",
"w  c #100C02",
"e  c #100D02",
"r  c #120D02",
"t  c #110E02",
"y  c #120E02",
"u  c #130E03",
"i  c #120F03",
"p  c #140F02",
"a  c #140F03",
"s  c #150F03",
"d  c #151002",
"f  c #151003",
"g  c #161103",
"h  c #181302",
"j  c #1C1503",
"k  c #1D1603",
"l  c #1E1703",
"z  c #1F1803",
"x  c #241B03",
"c  c #251C03",
"v  c #231A06",
"b  c #2B2003",
"n  c #2E2302",
"m  c #2A2004",
"M  c #2B2104",
"N  c #2C2104",
"B  c #2F2204",
"V  c #2F2304",
"C  c #302304",
"Z  c #322504",
"A  c #322604",
"S  c #3A2B03",
"D  c #382904",
"F  c #392B05",
"G  c #3F2F04",
"H  c #3E2F05",
"J  c #352909",
"K  c #433002",
"L  c #433205",
"P  c #443305",
"I  c #453305",
"U  c #473505",
"Y  c #483605",
"T  c #493706",
"R  c #4C3803",
"E  c #4B3804",
"W  c #4A3806",
"Q  c #4D3905",
"!  c #4D3A06",
"~  c #503C06",
"^  c #523D07",
"/  c #523E06",
"(  c #533E06",
")  c #554005",
"_  c #564106",
"`  c #594305",
"'  c #584206",
"]  c #584306",
"[  c #594306",
"{  c #5F4707",
"}  c #604807",
"|  c #604907",
" . c #614A07",
".. c #684E07",
"X. c #735608",
"o. c #775908",
"O. c #765A08",
"+. c #7B5D08",
"@. c #7E5F08",
"#. c #866509",
"$. c #896709",
"%. c #8D6A09",
"&. c #8F6C09",
"*. c #906C09",
"=. c #936F09",
"-. c #946E0B",
";. c #937009",
":. c #987209",
">. c #99730A",
",. c #9D760B",
"<. c #9F780A",
"1. c #947215",
"2. c #A27B0A",
"3. c #A57C0A",
"4. c #A67D0A",
"5. c #AB810B",
"6. c #AD820B",
"7. c #AE830B",
"8. c #AF840B",
"9. c #AB800C",
"0. c #B0850B",
"q. c #B1850B",
"w. c #B0840C",
"e. c #B78A0C",
"r. c #BA8B0B",
"t. c #BB8D0B",
"y. c #BE8F0C",
"u. c #BE9009",
"i. c #C0900C",
"p. c #C0910C",
"a. c #C1910C",
"s. c #C1920D",
"d. c #C3930C",
"f. c #C5940C",
"g. c #C6950D",
"h. c #CA980D",
"j. c #CB990D",
"k. c #CC990D",
"l. c #CC9A0D",
"z. c #CD9A0D",
"x. c #CF9B0D",
"c. c #CC9A0E",
"v. c #D19C0D",
"b. c #D29D0D",
"n. c #D39F0D",
"m. c #D49F0E",
"M. c #CC9C13",
"N. c #D5A00D",
"B. c #D6A10D",
"V. c #D6A10E",
"C. c #D6A10F",
"Z. c #DBA50E",
"A. c #DCA60E",
"S. c #DEA70E",
"D. c #D9A312",
"F. c #E3AB0E",
"G. c #E6AD0F",
"H. c #EBB10F",
"J. c #ECB20F",
"K. c #EDB20F",
"L. c #EFB40F",
"P. c #F0B50F",
"I. c #F1B50F",
"U. c #F1B60F",
"Y. c #F2B60F",
"T. c #F4B70F",
"R. c #F5B80F",
"E. c #F6B80F",
"W. c #F6B90F",
"Q. c #FABC0F",
"!. c #FBBD0F",
"~. c #FCBE0F",
"^. c #FDBE0F",
"/. c #FDBF0F",
"(. c #FEBE0F",
"). c #FEBF0F",
"_. c #EBB111",
"`. c #EDB210",
"'. c #ECB316",
"]. c #F3B710",
"[. c #F0B514",
"{. c #F5B810",
"}. c #F4B910",
"|. c #F6B810",
" X c #F6B910",
".X c #F7B910",
"XX c #F5B916",
"oX c #F7BA17",
"OX c #F8BA10",
"+X c #F8BB10",
"@X c #F9BB10",
"#X c #FABC10",
"$X c #FBBC10",
"%X c #FABD10",
"&X c #FBBD10",
"*X c #FBBC11",
"=X c #FCBD10",
"-X c #FDBD10",
";X c #FCBC11",
":X c #FCBD11",
">X c #FCBE10",
",X c #FDBE10",
"<X c #FDBF10",
"1X c #FCBE11",
"2X c #FDBE11",
"3X c #FDBF11",
"4X c #FEBE10",
"5X c #FFBE10",
"6X c #FEBF10",
"7X c #FFBF10",
"8X c #FEBE11",
"9X c #FFBE11",
"0X c #FEBF11",
"qX c #FFBF11",
"wX c #FCBD12",
"eX c #FDBD12",
"rX c #FDC011",
"tX c #FEC010",
"yX c #FFC010",
"uX c #FFC110",
"iX c #FEC011",
"pX c #FFC011",
"aX c #FFC210",
"sX c #FFC511",
"dX c None",
/* pixels */
"dXdXdXdXdXdXdXdXdXdXdXdXdXdXdXdXdXdXo       dXdXdXo o dXdXdXdXdXdXdXdXdXdXdXdXdXdXdXdXdXdXdXdXdX",
"dXdXdXdXdXdXdXdXdXdXdXdXdXdXdXdXdX  dXdXdXdX  $ 4 - 1 % 5 @ dXdXdX@ dXdXdXo dXdXdXdXdXdXdXdXdXdX",
"dXdXdXdXdXdXdXdXdXdXdXdXdXo         dXdX7 2 : [ 7.V.Z.N.3.L r p u.D : dXdXdXdXdXdXdXdXdXdXdXdXdX",
"dXdXdXdXdXdXdXdXdXdXdXdX  o dXdX  dX  < O.9.h.G. X,X6X,XR.G.>.` T.j 4.k e dXo dXdXdXo dXdXdXdXdX",
"dXdXdXdXdXdXdXdXdXdXdXdX  dXdXdX+ < +.K.6XT.#X6X6X6X6X6X6X6XY.g.a.A 6XP.Y . B : dXdXdXdXdXdXdXdX",
"dXdXdXdXdXdXdXdXdXdXdXo dXdXdX: D J.6X6X6X6X6X6X6X6X6X6X6X6X6X!.j.7.6X6XI.R j 4.k e dXo dXdXdXdX",
"dXdXdXdXdXdXdXdXdXdXdXo dXe k 4.j =X6X6X6X6X6X6X6X6X6X6X6X6X6X7X6X6X6X6Xo.8.A 6XP.Y . dXdXdXdXdX",
"dXdXdXdXdXdXdXdXdXdXdXdX. Y P.6XA a.6X6X6X6X6X6X6X6X6X6X6X6X6X6X6X6X6X+X! k.7.6X6XI.* 3 dXdXdXdX",
"dXdXdXdXdXdXdXdXdXdXdX3 * I.6X6X7.j.6X6X6X6X6X6X6X6X6X6X6X6X6X6X6X6X6X6X,X6X6X6X6Xo.W ; dXdXdXdX",
"dXdXdXdXdXdXdXdXdXdXdX; W o.6X6X6X6X6X6X6X6X6X6X6X6X6X6X6X6X6X6X6X6X6X6X6X6X6X6X+XP L.} dXdXdXdX",
"dXdXdXdXdXdXdXdXdXdXdX} L.P +X6X6X6X6X6X6X6X6X6X6X6X6X6X6X6X6X6X6X6X6X6X4X6X6X6X6X6X6X0.f dXdXdX",
"dXdXdXdXdXdXdXdXdXdXf 0.6X6X6X6X6X6X6X6X6X6X6X6X6X6X6X6X6X6X6X6X6X6X6X6X0X6X6X6X6X6X6Xh.p dXdXdX",
"dXdXdXdXdXdXdXdXdXdXp h.6X6X6X6X6X6X6X6X6X6X6X6X6X0X0X6X6X6X6X6XyX6X6X6X4X6X6X6X6X6X6Xy.d dXdXdX",
"dXdXdXdXdXdXdXdXdXdXd y.6X6X6X6X6X6X,X6X2X6X4X6X4X6X2X6X6X6X6XiX<X6X6X0X<X6X6X6X6X6X6X=.e dXdXdX",
"dXdXdXdXdXdXdXdXdXdXe =.6X6X6X6X6X6X6X6X6X6X6X6X6X6X6X6X6X6X6X<X).6X6X6X,X6X6X6X6X6X6X| dXdXdXdX",
"dXdXdXdXdXdXdXdXdXdXdX| 6X6X6X6X7X6X7X6X6X6X6X6X6X6X6X0X0X6X6X6X6X6X6X6X6X6X4X6X6X6X6Xh dXdXdXdX",
"dXdXdXdXdXdXdXdXdXdXdXh 6X6X6X6X6X6X6X6X6X6X>X6X(.6X6X(.6X~.6X6X6X6X6X6X6X6X-X0X6X6Xn.5 dXdXdXdX",
"dXdXdXdXdXdXdXdXdXdXdX5 n.6X6X6XtX6XtX6X<X<X6X6XqX6X6X)./.6X<X<X6X6X6X6X6X6X<X,X6X6X#.0 dXdXdXdX",
"dXdXdXdXdXdXdXdXdXdXdX0 #.6X6X6X7X6X4X).6X7X6X6X5X6X6X6X6X6X7X6X).6X6X6X6X6X<X1X6X6XM dXdXdXdXdX",
"dXdXdXdXdXdXdXdXdXdXdXdXM 6X6X6X6X6X7X9X4X6X6X6X6X6X6X6X6X6XiX6X6XyX6XqXiX6X[.wX6Xz.5 dXdXdXdXdX",
"dXdXdXdXdXdXdXdXdXdXdXdX5 z.6X,X6X7XsXpX/.6X6X6X6X6X6X6X6X4XtXuX6X6X6XuXtXoX1._.6X .dXdXdXdXdXdX",
"dXdXdXdXdXdXdXdXdXdXdXdXdX .6XH.6XaX6XaX7X6X6X6X6X6X6X6X6X0XuX6X6X6X6X6XuX'.J m.L.< dX  dXdXdXdX",
"dXdXdXdXdXdXdXdXdXdXdX  dX< L.B.R.aX6XaX7X6X6X6X6X6X6X6X6XyX6X6X6X6X6X6X6XyXF i.@.=     dXdXdXdX",
"dXdXdXdXdXdXdXdXdXdXdX    = @.a.E  XsXqX^.6X6X6X6X6X6X6X6XyX6X6X6X6X6X6X6XyX/ .X*   dX  dXdXdXdX",
"dXdXdXdXdXdXdXdXdXdXdX  dX  * %.( q.:.eX4X6X6X6X6X6X6X6X6X0XuX6X6X6X6X6XuXD.E.<   dXdXo dXdXdXdX",
"dXdXdXdXdXdXdXdXdXdXdX  dXdX  < ..6XW 2.M.XX6X6X6X6X6X6X6X4X<XuX6X6X6XuXU.K 6X+ dXdXdXdXdXdXdXdX",
"dXdXdXdXdXdXdXdXdXdXdX  dXdXdX+ X.6XF.$X<X%X>X/.).6X6X)./.6X3X<X0XpX6XqX:X$XOXl C dXdXdXdXdXdXdX",
"dXdXdXdXdXdXdXdXdXdXdX  dXdXi < k V A.6X6X6X&X3XqXpX4X6X6X4X0X8X*X=X6X6X6XA.V x ) T dXdXdXdXdXdX",
"dXdXdXdXdXdXdXdXdXdXdXdXdXdXH }.iX,.^ 6X6X0X3X0XrX3X6X6X6X6X3XrX0X3X0X6X6XT ;.6XU.Z dXdXdXdXdXdX",
"dXdXdXdXdXdXdXdXdXdXdXdXdXy h.6.d.C.b 6X6XtXqX).6X6X6X6X6X6X6X6X).qXtX6X6X9 k.x.h.l.dXdXdXdXdXdX",
"dXdXdXdXdXdXdXdXdXdXdXdXdXw v.-.`.c.H 6X9X6X4X).6X6X6X6X6X6X6X6X).4X6X9X6XN s.{.j.b.e dXdXdXdXdX",
"dXdXdXdXdXdXdXdXdXdXdXdXdX9 L j.w.A 6.6XtX>X6X6X6X6X6X6X6X6X6X6X6X6X>X6X6X5.c 5.h.I 9 dXdXdXdXdX",
"dXdXdXdXdXdXdXdXdXdXdXdXdXdX6 9 < f.6X6X0X<X6X0XqXpX8X0X0X4XpXqX3X6X=X4X6X6Xf.< 9 6 dXdXdXdXdXdX",
"dXdXdXdXdXdXdXdXdXdXdXdXdXdXdXdX% 6X6X6X6X6XtX8X0XqX0X0X0X6XqX0X8XtX<X6X6X6X6X% dXdXdXdXdXdXdXdX",
"dXdXdXdXdXdXdXdXdXdXdXdXdXdXdXdX# W.0X6X).<X0X).6X6X6X6X6X6X6X6X).0X<XQ.6X6XW.# dXdXdXdXdXdXdXdX",
"dXdXdXdXdXdXdXdXdXdXdXdXdXdXdXdX$ 6X0X6XqX7X6X).6X6X6X6X6X6X6X6X).6X0X|.&X6X6X% , dXdXdXdXdXdXdX",
"dXdXdXdXdXdXdXdXdXdXdXdXdXdXdXdXk 6XtX<X9X6X6X6X6X6X6X6X6X6X6X6X6X6X@X;X<X6Xr.v O dXdXdXdXdXdXdX",
"dXdXdXdXdXdXdXdXdXdXdXdXdXdXdXdX' 6X6X,X4X6X6X6X6X6X6X6X6X6X6X6X6X6X,X,X6X6X{ S X dXdXdXdXdXdXdX",
"dXdXdXdXdXdXdXdXdXdXdXdXdXdXdXs <.6X0X,X6XtX6X6X6X6X6X6X6X6X6X6X6X6X<X6X6X6X<.G a dXdXdXdXdXdXdX",
"dXdXdXdXdXdXdXdXdXdXdXdXdXdXdX; K.6X6X6X6XtX6X6X6X6X6X6X6X6X6X6X6X6X<X6X6X6XK.q * dXdXdXdXdXdXdX",
"dXdXdXdXdXdXdXdXdXdXdXdXdXdXdXU 6X6X6X6X<X6X6X6X6X6X6X6X6X6X6X6X6X6X<X4X6X6X6X~ n dXdXdXdXdXdXdX",
"dXdXdXdXdXdXdXdXdXdXdXdXdXdXg 3.6X6X6X6X9X].6X6X6X6X6X6X6X6X6X6X6X6X6X9X6X6X6X3.m dXdXdXdXdXdXdX",
"dXdXdXdXdXdXdXdXdXdXdXdXdXdX> p.6X6X6X6XqX7X,X).6X6X6X6X6X6X6X6X).6X7XqX6X6X6Xp.> dXdXdXdXdXdXdX",
"dXdXdXdXdXdXdXdXdXdXdXdXdXdXdX1 _ Z.6X6X).<X0X).6X6X6X6X6X6X6X6X).0X<X).6XZ._ 1 dXdXdXdXdXdXdXdX",
"dXdXdXdXdXdXdXdXdXdXdXdXdXdXdXdX& < ] d.6X6XtX8X0XqX6X6X6X6XqX0X8XtX6Xd.] < & dXdXdXdXdXdXdXdXdX",
"dXdXdXdXdXdXdXdXdXdXdXdXdXdXdXdXdXdXdX9 z $.B.3XqXpX4X6X6X4XpXqXG.*.z 9 dXdXdXdXdXdXdXdXdXdXdXdX",
"dXdXdXdXdXdXdXdXdXdXdXdXdXdXdXdXdXdXdXdXdX8 8 t ' &.e.S.Y.t.Q t 8 8 dXdXdXdXdXdXdXdXdXdXdXdXdXdX",
"dXdXdXdXdXdXdXdXdXdXdXdXdXdXdXdXdXdXdXdXdXdXdXdXdX5 a 8   1 u dXdXdXdXdXdXdXdXdXdXdXdXdXdXdXdXdX"
};
