/* XPM */
static char *_60a5b7878f3492883001f7cd774d709pbuOR4LJ3bp9RiZa[] = {
/* columns rows colors chars-per-pixel */
"48 48 138 2 ",
"   c None",
".  c #030202",
"X  c #090703",
"o  c #0C0A03",
"O  c #0F0D09",
"+  c #120E03",
"@  c #110F0A",
"#  c #151004",
"$  c #1D1603",
"%  c #1F1803",
"&  c #15120D",
"*  c #1A150D",
"=  c #131515",
"-  c #1F1E16",
";  c #181919",
":  c #241C05",
">  c #201B0B",
",  c #201B13",
"<  c #2C2105",
"1  c #2D250C",
"2  c #322604",
"3  c #362904",
"4  c #3C2C05",
"5  c #31260A",
"6  c #212017",
"7  c #23221B",
"8  c #2F2319",
"9  c #312515",
"0  c #362917",
"q  c #32261B",
"w  c #33322A",
"e  c #2D3030",
"r  c #333636",
"t  c #3C3C35",
"y  c #373A3A",
"u  c #393D3D",
"i  c #453305",
"p  c #483605",
"a  c #4A3806",
"s  c #41320B",
"d  c #4A3809",
"f  c #533E06",
"g  c #523E0A",
"h  c #453812",
"j  c #4C3E13",
"k  c #453423",
"l  c #483727",
"z  c #4A3825",
"x  c #4C3A29",
"c  c #543F2D",
"v  c #564106",
"b  c #584206",
"n  c #57440D",
"m  c #59460E",
"M  c #5E4A0E",
"N  c #534210",
"B  c #624A07",
"V  c #684E07",
"C  c #654D0C",
"Z  c #6D520A",
"A  c #725608",
"S  c #765909",
"D  c #7B5D09",
"F  c #56412D",
"G  c #424238",
"H  c #5F4732",
"J  c #5F4833",
"K  c #654C35",
"L  c #694F37",
"P  c #6C523A",
"I  c #75593F",
"U  c #494B43",
"Y  c #464B4B",
"T  c #51534B",
"R  c #525653",
"E  c #545853",
"W  c #555B5B",
"Q  c #5A5E59",
"!  c #625E48",
"~  c #7A5C41",
"^  c #7F6044",
"/  c #646B68",
"(  c #686F6F",
")  c #6A706E",
"_  c #6D7474",
"`  c #727A7A",
"'  c #846409",
"]  c #89670A",
"[  c #8D6A09",
"{  c #936F09",
"}  c #967109",
"|  c #9B750A",
" . c #9F780A",
".. c #A57C0A",
"X. c #A97F0B",
"o. c #826245",
"O. c #866548",
"+. c #886749",
"@. c #8A684A",
"#. c #916D4D",
"$. c #977251",
"%. c #9B7553",
"&. c #A37B57",
"*. c #AD820B",
"=. c #B1850B",
"-. c #B6890B",
";. c #BC8E0C",
":. c #C3930C",
">. c #C9970D",
",. c #CC9A0D",
"<. c #D39E0D",
"1. c #D6A10D",
"2. c #DBA50E",
"3. c #E4AB0E",
"4. c #E9AF0F",
"5. c #EDB30F",
"6. c #F1B50F",
"7. c #F6B90F",
"8. c #FEBF10",
"9. c #848471",
"0. c #7C8585",
"q. c #7F8888",
"w. c #8E9898",
"e. c #949D9D",
"r. c #99A3A3",
"t. c #A7B3B3",
"y. c #B2BEBE",
"u. c #BFCDCD",
"i. c #C2CFCF",
"p. c #C6D4D4",
"a. c #C3D0D0",
"s. c #CCDADA",
"d. c #CEDCDC",
"f. c #CEDDDD",
"g. c #D0DFDF",
"h. c #D3E1E1",
"j. c #D4E3E3",
"k. c #D6E5E5",
/* pixels */
"                                    . . . .                                                     ",
"                                  .         . .                                                 ",
"                          . . . . .     o o X o X +                                             ",
"                        . .     .   . X S 1.8.8.7.-.4 o                                         ",
"                        .       . X D 5.8.8.8.8.8.8.8.| o                                       ",
"                      .       X 3 5.8.8.8.8.8.8.8.8.8.8.-.o                                     ",
"                      .   + $ ..$ 7.8.8.8.8.8.8.8.8.8.8.8.-.o                                   ",
"                        . i 6.8.2 :.8.8.8.8.8.8.8.8.8.8.8.8.X.o                                 ",
"                      o X 6.8.8.*.,.8.8.8.8.8.8.8.8.8.8.8.8.8.[ o                               ",
"                      X a S 8.8.8.8.8.8.8.8.8.8.8.8.8.8.8.8.8.8.V o                             ",
"                      B 6.i 7.8.8.8.8.8.8.8.8.8.8.8.8.8.8.8.8.8.7.:                             ",
"                    # *.8.8.8.8.8.8.8.8.8.8.8.8.8.8.8.8.8.8.8.8.8.;.+                           ",
"                    + >.8.8.8.8.8.8.8.8.8.8.8.8.8.8.8.8.8.8.8.8.8.8.$                           ",
"                    # ;.8.8.8.8.8.8.8.8.8.8.8.8.8.8.8.8.8.8.8.8.8.8.Z                           ",
"                    + { 8.8.8.8.8.8.8.8.8.8.8.8.8.8.8.8.8.8.8.8.8.8.:.o                         ",
"                      B 8.8.8.8.8.8.8.8.8.8.8.8.8.8.8.8.8.8.8.8.5.2.6.A +                       ",
"                      # 8.8.8.8.8.8.8.8.8.8.*.M N 0 Z :.8.8.=.9 @ 7 @ 1 +                       ",
"                      o <.8.8.8.8.8.8.8.7.4 w q.r.r.` 6 C ] 7 r.j.k.j.w.&                       ",
"                      + ' 8.8.8.8.8.8.8.m R h.k.k.k.k.f.t = u.k.k.k.k.k.y.@                     ",
"                        < 8.8.8.8.8.8.1.* d.k.k.k.k.k.k.p.= u.k.k.k.k.k.k.( *                   ",
"                        o ,.8.8. .8.8.[ Q k.k.k.k.k.k.k.k.W q.k.k.k.k.Y u y.=                   ",
"                          B 8.5.. ;.8.D ` k.k.e = u.k.k.k.) ) k.k.k.k.R y j..                   ",
"                      .   X 5.1.. p 8.' / k.k.r ; u.k.k.k.W 0.k.k.k.k.k.k.d.X                   ",
"                      . . o D ;.3 : :.*.G k.k.k.k.k.k.k.j.7 9.k.k.k.k.k.k.e.=                   ",
"                      .   . X [ f =.2 4.@ g.k.k.k.k.k.k.e.> < o @ @ @ , ! ,                     ",
"                      .     . X V 8.p } N E g.k.k.k.k.t.= ;.8.7.4.4.6.1.A X                     ",
"                      .       X A 8.3.,.6.m @ T ` ` U * -.8.8.8.8.8.8.8.2..                     ",
"                      .     + X $ 2 2.8.8.8.<...D S  .6.8.8.8.8.8.8.8.8.[ .                     ",
"                            4 5.8.' p 8.8.8.8.8.8.8.,.[ n 4 n D S C A A X                       ",
"                          + ,.f $ -.+ 8.8.8.8.7.} : $ j K I L F c J c @ X                       ",
"                          + <.A 3.-.: 8.8.8.<.: 9 o.&.&.&.&.9.&.&.&.&.#.* X                     ",
"                          + i >.X.$ *.8.8.<.# K &.&.&.&.&.&.&.&.&.&.&.&.$.&                     ",
"                            o o X :.8.8.7.< K &.&.&.&.&.&.&.&.&.&.&.&.&.&.+.X                   ",
"                                X 8.8.8.| 9 &.&.&.&.&.&.&.&.&.&.&.&.&.&.&.&.&                   ",
"                                . 7.8.8.2 ~ &.&.&.&.&.&.&.&.&.&.&.&.&.&.&.&.= .                 ",
"                                X 8.8.8.X %.&.&.&.&.&.&.&.&.&.&.&.&.&.&.&.&.#.k O               ",
"                                $ 8.8.3.O &.&.&.#.q &.&.&.&.&.&.&.&.&.&.&.&.&.$..               ",
"                                v 8.8.1.# &.&.&.q , O.&.&.&.&.&.&.&.&.&.&.&.$.8 O               ",
"                              # ..8.8.4.O &.&.&.X x & @ l P @.&.$.$.#.o.K q X O                 ",
"                              X 5.8.8.8.: ~ &.&.o.&.&.O.c q * X o O . X X                       ",
"                              p 8.8.8.8.*.* #.&.&.&.&.&.&.&.&.&.%.H X                           ",
"                            # ..8.8.8.8.8.] + F $.&.&.&.&.&.&.F . O                             ",
"                            o :.8.8.8.8.8.8.1.B o 0 K I ~ P k X                                 ",
"                              X v 2.8.8.8.8.8.8.6...V s 5 d .                                   ",
"                                X X b :.8.8.8.8.8.8.8.8.8.5.X                                   ",
"                                      + % ] 1.8.8.8.8.8.8.2.o                                   ",
"                                          o o + b { -.2.6.;.+                                   ",
"                                                  o + + . X +                                   "
};
