/* XPM */
static char *e11b4f59e1d84305fc31b011e0b82c8apaY1MZYbboTzPvLS[] = {
/* columns rows colors chars-per-pixel */
"64 64 182 2 ",
"   c None",
".  c #020101",
"X  c #0A0502",
"o  c #0B0903",
"O  c #060A0A",
"+  c #0B0D0D",
"@  c #130704",
"#  c #130B03",
"$  c #1A0A04",
"%  c #180704",
"&  c #151103",
"*  c #1A1603",
"=  c #1E1803",
"-  c #1A180D",
";  c #0C1111",
":  c #0E1818",
">  c #131413",
",  c #141A1A",
"<  c #1D1F1F",
"1  c #230C06",
"2  c #2A0E07",
"3  c #201205",
"4  c #231C03",
"5  c #281F04",
"6  c #311407",
"7  c #341109",
"8  c #3B1309",
"9  c #371A07",
"0  c #2F1712",
"q  c #15231C",
"w  c #2C2304",
"e  c #292308",
"r  c #352A05",
"t  c #3B2E05",
"y  c #332905",
"u  c #3E3308",
"i  c #252214",
"p  c #332918",
"a  c #3A3519",
"s  c #353118",
"d  c #121F20",
"f  c #192522",
"g  c #1F3637",
"h  c #232525",
"j  c #2B2D2D",
"k  c #212D27",
"l  c #2A3932",
"z  c #353B3A",
"x  c #3A3E3E",
"c  c #323534",
"v  c #43150B",
"b  c #49160B",
"n  c #4B180C",
"m  c #531A0D",
"M  c #5B1C0E",
"N  c #621E0F",
"B  c #691F0F",
"V  c #651F10",
"C  c #423405",
"Z  c #4C3D06",
"A  c #473809",
"S  c #543D08",
"D  c #49200A",
"F  c #672010",
"G  c #6A2111",
"H  c #732411",
"J  c #7A2512",
"K  c #7A3310",
"L  c #69290F",
"P  c #543630",
"I  c #274334",
"U  c #2E503E",
"Y  c #36463F",
"T  c #4F4106",
"R  c #544306",
"E  c #5A4A06",
"W  c #51430A",
"Q  c #5C4C0B",
"!  c #614F07",
"~  c #645207",
"^  c #63510C",
"/  c #6D590A",
"(  c #6A5608",
")  c #715D0A",
"_  c #745F07",
"`  c #7B6408",
"'  c #75610E",
"]  c #2A494A",
"[  c #3D4141",
"{  c #335859",
"}  c #3A664F",
"|  c #3A6667",
" . c #444949",
".. c #46524D",
"X. c #565B5B",
"o. c #50544F",
"O. c #63675D",
"+. c #5F6563",
"@. c #447778",
"#. c #666D6D",
"$. c #616767",
"%. c #6B7674",
"&. c #727575",
"*. c #737B7B",
"=. c #6A716E",
"-. c #8C2A14",
";. c #822813",
":. c #9B2F17",
">. c #942D16",
",. c #883612",
"<. c #9E3117",
"1. c #933614",
"2. c #A63218",
"3. c #AB3419",
"4. c #A33717",
"5. c #B6371B",
"6. c #B8371B",
"7. c #BD391C",
"8. c #C33B1D",
"9. c #CC3D1E",
"0. c #D23F1F",
"q. c #836B08",
"w. c #886F08",
"e. c #8D7309",
"r. c #9A7E0B",
"t. c #937809",
"y. c #D5401F",
"u. c #DD4321",
"i. c #E44521",
"p. c #EB4723",
"a. c #EF4823",
"s. c #5EA47E",
"d. c #9F810B",
"f. c #A3850A",
"g. c #AF8E0B",
"h. c #B5930B",
"j. c #BB980C",
"k. c #C29E0C",
"l. c #CBA50D",
"z. c #D2AB0D",
"x. c #DBB20E",
"c. c #E1B70E",
"v. c #E5BA0E",
"b. c #EABE0F",
"n. c #EEC10F",
"m. c #F1C40F",
"M. c #487E80",
"N. c #4C8688",
"B. c #518F91",
"V. c #559698",
"C. c #559597",
"Z. c #7B8484",
"A. c #7B8584",
"S. c #64AE86",
"D. c #5DA3A6",
"F. c #61ABAE",
"G. c #63AEB1",
"H. c #71C598",
"J. c #6CBEC0",
"K. c #6EC2C5",
"L. c #74CCCF",
"P. c #818A8A",
"I. c #8F9999",
"U. c #899393",
"Y. c #919B9B",
"T. c #989C9A",
"R. c #97A2A2",
"E. c #9BA4A4",
"W. c #9DA8A8",
"Q. c #A2ADAD",
"!. c #ABB7B7",
"~. c #AFBBBB",
"^. c #B2BEBE",
"/. c #B9C6C6",
"(. c #B9C7C7",
"). c #C4D2D2",
"_. c #CDDBDB",
"`. c #C8D6D6",
"'. c #D0DFDF",
"]. c #D6E5E5",
"[. c #D5E4E4",
"{. c #D6E5E5",
/* pixels */
"                                                                                                                                ",
"                                                                                                                                ",
"                                                                                                                                ",
"                                                                                                                                ",
"                                                    . .                                                                         ",
"                                                    . : O . . . . . . . . . . . .                                               ",
"                                                    . L.L.J.F.V.N.N.N.N.C.V.V.V.+ .                                             ",
"                                                    O L.L.L.L.L.L.L.L.L.L.L.L.L.; . . . . .                                     ",
"                                                    O L.L.L.L.L.L.L.L.L.L.L.L.L.O . . . . . .                                   ",
"                                                    O L.L.L.L.L.L.L.L.L.L.L.L.L.. .         . .                                 ",
"                                                    O L.L.L.L.L.L.L.L.L.L.L.L.K..           . .                                 ",
"                                                    O L.L.L.L.L.L.L.L.L.L.L.L.F..           . .                                 ",
"                                                    . K.L.L.L.L.L.L.L.L.L.L.L.B.. .       . .                                   ",
"                                                    . G.L.L.L.L.L.L.L.L.L.L.L.@.. . . . . .                                     ",
"                                                    . M.L.L.L.L.L.L.L.L.L.L.L.g .                                               ",
"                                                    . d J.L.L.L.L.L.L.L.L.L.C..                                                 ",
"                                                      . f D.L.L.L.L.L.L.L.@.O O                                                 ",
"                        . . . . . . . . . . . . . X . . O . f ] { | | ] ; . O                                                   ",
"                      . b 3.2.-.;.H B @ O  .x c j h < > + . + + O O O O . . . . . . . . . . . . X . . . . .                     ",
"                    . X 0.a.a.a.a.a.-.. R.].].].].].].].!.. 3.a.u.u.u.y.-.. R.~.^././.).R.. 6.a.a.a.a.a.i.@ .                   ",
"                    . J a.a.a.a.a.p.$ 0 ].].].].].].].].U.. 0.a.a.a.a.a.8.. E.].].].].].'.. J a.a.a.a.a.a.J .                   ",
"                  . X i.a.a.a.a.a.2.. E.].].].].].].].].=.X a.a.a.a.a.a.i.. A.].].].].].].x 1 a.a.a.a.a.a.i.X .                 ",
"                  . J a.a.a.a.a.a.m % ].].].].].].].].]. .7 a.a.a.a.a.a.a.@ +.].].].].].[.Y.. 8.a.a.a.a.a.a.J .                 ",
"                . X i.a.a.a.a.a.a.X P ].].].].].].].].].d N a.a.a.a.a.a.a.7 [ ].].].].].[._.O H a.a.a.a.a.a.i.@ .               ",
"                . J a.a.a.a.a.a.6.. T.].].].].].].].].`.. -.a.a.a.a.a.a.a.m f [.].].].].].].j v a.a.a.a.a.a.a.>..               ",
"              . X u.a.a.a.a.a.a.J O _.].].].].].].].].Q.. 7.a.a.a.a.a.a.a.J X [.].].].].].].#.X a.a.a.a.a.a.a.a.2 .             ",
"              . F a.a.a.a.a.a.a.8 p ].].].].].].].].].Z.. i.a.a.a.a.a.a.a.>.. ).].].].].].].Y.. 9.a.a.a.a.a.a.a.2..             ",
"              X u.a.a.a.a.a.a.i.X &.].].].].].].].].].o.1 a.a.a.a.a.a.a.a.6.. !.].].].].].].(.. :.a.a.a.a.a.a.a.a.1 .           ",
"            . n a.a.a.a.a.a.a.3.. ~.[.[.].].].].].].[.h m a.a.a.a.a.a.a.a.0.. Y.[.[.[.].].[.].; N a.a.a.a.a.a.a.a.J .           ",
"            . $ n F ;.:.3.6.9.B X ).`.`././.^.!.~.Q.E.X M 2.<.:.2.3.3.5.7.7.. #././.Q.U.A.*.*.j X F M n 7 2 @ 1 1 % .           ",
"            . 7 v 1 X . . . . . . . . . . . . . . . . X . . . . . . . . . . . . . . . . . ; ; X . @ 2 v m M H H H m .           ",
"            X F a.a.a.i.9.7.6.X , I.U.I.I.E.W.W.!.!.M.% 1 0.u.u.9.9.8.7.8.J . > E.E.^.).[.[.[.*.. F a.a.a.a.a.a.a.2..           ",
"            1 1 a.a.a.a.a.a.;.. . *.].].].].].].[.[.c # . 2.a.a.a.a.a.a.9.% 4 . M.].].].].].[.j X . 2.a.a.a.a.a.i.1 .           ",
"              . J a.a.a.y.N . ( / . [ !.].].].].[.=.. f.r $ 5.a.a.a.a.:.@ 3 x.! O P.].].].].&.. f.t X >.a.a.a.y.8 .             ",
"              % . % b 7 . o q.n.m.d.- . c $.%.+.i . ` m.x.4 . 2 m M 1 . C x.m.n.Q . h X.O.j . / m.v.E . $ D 9 . .               ",
"                . . t S q.x.m.m.m.m.n.d.A & X 4 T h.m.m.m.n.r.Q r C E h.m.m.m.m.m.h.Q y 9 R g.m.m.m.m.j.~ Z u .                 ",
"                  & m.m.m.m.m.m.m.m.m.m.m.m.m.m.m.m.m.m.m.m.m.m.m.m.m.m.m.m.m.m.m.m.m.n.m.n.m.m.m.m.m.m.m.m.l..                 ",
"                  o m.m.m.n.m.m.m.m.m.m.m.m.m.m.m.m.m.m.m.m.m.m.m.m.m.m.m.m.h.! ! R R R E ! ~ / w.f.z.m.m.m.l..                 ",
"                  . m.m.m.n.z.z.z.z.x.c.c.c.n.m.n.n.c.c.c.c.x.z.z.z.n.m.m.m.Z @ 6 6 6 6 6 6 1 $ . . 4 m.m.m.l..                 ",
"                  . c.m.n.( . . . . . . . . . . . . . . . . . . . . ~ m.m.m.r n a.a.a.a.a.a.a.a.a.H # m.m.m.l..                 ",
"                  . l.m.m.R i E.E.I.I.I.P.A.P.P.P.P.P.P.I.I.I.I.Y.h R m.m.m.5 N a.a.a.a.a.a.a.a.a.J X m.m.m.g..                 ",
"                  . j.n.m.R s ].{.{.].].].].].].]._.[.[.].[.].].].j Q m.m.m.5 F a.a.a.a.a.a.a.a.a.-.. n.m.m.t..                 ",
"                  . f.m.m.R s ].{.{.{.].[.[.W.].U.i {.{.].].].].].h ^ m.m.m.w M a.a.a.a.a.a.a.a.a.>.. v.m.m._ .                 ",
"                  o t.m.m.R s ].{.{.{.{.[.Q.. _.P.+ {.{.].].].].].h ^ m.m.m.y m a.a.a.a.a.a.a.a.a.:.. x.m.m.E .                 ",
"                  * ` m.m.W a ].].].].].].^.. ~.=. .{.{.].].].].].< / m.m.m.r m a.a.a.a.a.a.a.a.a.<.. x.m.m.C .                 ",
"                  w ( m.m.Z a ].].].].].].~.> ).{.{.{.{.].].].].{., ) m.m.m.C b a.a.a.a.a.a.a.a.a.2.. z.m.m.w .                 ",
"                  y ~ m.m.Z a ].].].].].].].[.].[.[.].].].].].].{.> ' m.m.m.A v a.a.a.a.i.6.u.a.a.2.. z.m.m.4 .                 ",
"                  r Q m.m.Z s ].].].].].Y.k l l Y { *.].].].].].{.+ ` m.m.m.S 8 a.a.a.8.% . @ 8.a.3.. l.m.m.4 .                 ",
"                  t E m.m.R p [.].].].]...q U U I f ; [.].].].].[.+ q.m.m.m.S 7 a.a.a.n t z.w F a.3.. l.m.m.= .                 ",
"                  y ! m.m.E i [.].].].]...l H.H.H.} , [.].].].].[.. q.m.m.m.R 7 a.a.a.n t e.o -.a.4.. z.m.m.= .                 ",
"                  w ( m.m./ - [.].].].].#.f H.H.H.I Y [.].].].].].X q.m.m.m.S 8 a.a.a.8.2 X M i.a.<.. x.m.m.e .                 ",
"                  w ) m.m.q.X '.].].].].R.. s.H.S.o A.[.].].].].[.. w.m.m.m.R 7 a.a.a.a.a.a.a.a.a.1.. v.n.n.w .                 ",
"                  4 ` m.m.f.. O.O.o.[ j j O . . . O j j z x z j j . w.m.m.m.R 7 a.a.a.a.a.a.a.a.a.,.. n.n.m.y .                 ",
"                  & w.m.m.z.o o * y C R Q Q u y u Q ^ W W W W W W E z.m.m.m.S 8 a.a.a.a.a.a.a.a.a.,.. m.m.m.r .                 ",
"                  & e.n.m.m.n.n.m.m.m.m.m.m.m.m.m.m.m.m.m.m.m.m.m.m.m.m.m.m.Z 8 a.a.a.a.a.a.a.a.a.K o m.m.m.t .                 ",
"                  o d.m.m.m.m.n.m.m.m.m.m.m.m.m.m.m.m.m.m.m.m.m.m.m.m.m.m.m.A v a.a.a.a.a.a.a.a.a.K & n.m.m.t .                 ",
"                  . f.m.m.n.n.m.m.m.m.n.n.m.m.n.c.z.l.z.z.v.m.m.m.m.m.m.m.n.t n a.a.a.a.a.a.a.a.a.L = n.n.b.y .                 ",
"                  . w C C T R R R C t y 4 & o . . . . . . . o 4 t Z Q ~ E t o . . . . X # o 3 3 = X . X . . . .                 ",
"                    # & & = = = = 4 w w y w                   * * * & # & X .                       .                           ",
"                                                                                                                                ",
"                                                                                                                                ",
"                                                                                                                                ",
"                                                                                                                                ",
"                                                                                                                                "
};
